<?xml version="1.0" encoding="UTF-8" standalone="no"?>
<!DOCTYPE svg PUBLIC "-//W3C//DTD SVG 1.1//EN" "http://www.w3.org/Graphics/SVG/1.1/DTD/svg11.dtd">
<svg width="1000.00" height="1000.00" viewBox="0.00 0.00 1000.00 1000.00" xmlns="http://www.w3.org/2000/svg" xmlns:xlink="http://www.w3.org/1999/xlink">
<g stroke-linecap="round" id="Layer_2">
<path d="M497.92,551.19 L576.88,630.14 L497.92,709.10 L418.96,630.14 L497.92,551.19 Z" fill="none" stroke="rgb(255, 255, 255)" stroke-width="60.00" stroke-opacity="1.00" stroke-linejoin="miter"/>
<path d="M626.63,425.70 L702.95,502.02 L626.63,578.34 L550.31,502.02 L626.63,425.70 Z" fill="none" stroke="rgb(255, 255, 255)" stroke-width="60.00" stroke-opacity="1.00" stroke-linejoin="miter"/>
<path d="M368.97,425.92 L444.33,501.27 L368.97,576.62 L293.62,501.27 L368.97,425.92 Z" fill="none" stroke="rgb(255, 255, 255)" stroke-width="60.00" stroke-opacity="1.00" stroke-linejoin="miter"/>
<path d="M498.60,293.19 L577.57,372.16 L498.60,451.14 L419.62,372.16 L498.60,293.19 Z" fill="none" stroke="rgb(255, 255, 255)" stroke-width="60.00" stroke-opacity="1.00" stroke-linejoin="miter"/>
<path d="M493.61,718.78 L415.07,797.32" fill="none" stroke="rgb(255, 255, 255)" stroke-width="60.00" stroke-opacity="1.00" stroke-linejoin="round"/>
<path d="M497.55,714.17 L575.44,792.06" fill="none" stroke="rgb(255, 255, 255)" stroke-width="60.00" stroke-opacity="1.00" stroke-linejoin="round"/>
<path d="M573.67,792.20 C576.61,795.84 578.85,799.09 580.43,802.54 C584.30,810.97 589.41,824.50 590.75,831.65 C592.05,838.80 592.10,854.63 591.07,861.29 C589.88,868.75 585.31,883.81 582.29,889.77 C578.82,896.55 569.85,909.41 565.14,914.15 C559.75,919.52 547.25,928.98 541.30,932.03 C534.52,935.48 519.70,940.61 513.10,941.67 C505.58,942.85 489.91,943.15 483.31,942.12 C475.79,940.92 460.79,936.37 454.83,933.35 C448.05,929.88 435.19,920.91 430.45,916.20 C425.08,910.81 415.62,898.31 412.57,892.36 C409.12,885.57 403.99,870.76 402.93,864.16 C401.75,856.64 401.45,841.37 402.41,834.42 C403.55,826.34 407.65,812.68 411.50,805.65 C414.58,800.09 425.99,783.96 426.55,783.42" fill="none" stroke="rgb(255, 255, 255)" stroke-width="60.00" stroke-opacity="1.00" stroke-linejoin="round"/>
<path d="M272.05,499.72 L193.51,421.18" fill="none" stroke="rgb(255, 255, 255)" stroke-width="60.00" stroke-opacity="1.00" stroke-linejoin="round"/>
<path d="M276.65,503.66 L198.77,581.54" fill="none" stroke="rgb(255, 255, 255)" stroke-width="60.00" stroke-opacity="1.00" stroke-linejoin="round"/>
<path d="M198.62,579.77 C194.99,582.72 191.73,584.96 188.29,586.54 C179.85,590.41 166.33,595.52 159.17,596.86 C152.02,598.15 136.20,598.20 129.53,597.17 C122.08,595.99 107.02,591.41 101.05,588.40 C94.27,584.93 81.42,575.96 76.68,571.25 C71.30,565.86 61.85,553.36 58.80,547.41 C55.35,540.62 50.22,525.81 49.16,519.21 C47.97,511.69 47.67,496.02 48.70,489.41 C49.90,481.90 54.46,466.90 57.48,460.93 C60.94,454.15 69.91,441.30 74.62,436.56 C80.01,431.18 92.52,421.73 98.46,418.68 C105.25,415.23 120.07,410.10 126.66,409.04 C134.18,407.85 149.45,407.56 156.41,408.52 C164.49,409.66 178.14,413.76 185.18,417.61 C190.74,420.69 206.87,432.10 207.40,432.65" fill="none" stroke="rgb(255, 255, 255)" stroke-width="60.00" stroke-opacity="1.00" stroke-linejoin="round"/>
<path d="M719.95,505.71 L798.49,584.25" fill="none" stroke="rgb(255, 255, 255)" stroke-width="60.00" stroke-opacity="1.00" stroke-linejoin="round"/>
<path d="M715.35,501.77 L793.23,423.88" fill="none" stroke="rgb(255, 255, 255)" stroke-width="60.00" stroke-opacity="1.00" stroke-linejoin="round"/>
<path d="M793.38,425.65 C797.01,422.71 800.27,420.47 803.71,418.89 C812.15,415.02 825.67,409.91 832.83,408.57 C839.98,407.27 855.80,407.22 862.47,408.25 C869.92,409.44 884.98,414.01 890.95,417.03 C897.73,420.50 910.58,429.47 915.32,434.18 C920.70,439.57 930.15,452.07 933.20,458.02 C936.65,464.81 941.78,479.62 942.84,486.22 C944.03,493.74 944.33,509.41 943.30,516.01 C942.10,523.53 937.54,538.53 934.52,544.49 C931.06,551.27 922.09,564.13 917.38,568.87 C911.99,574.24 899.48,583.70 893.54,586.75 C886.75,590.20 871.93,595.33 865.34,596.39 C857.82,597.57 842.55,597.87 835.59,596.91 C827.51,595.77 813.86,591.67 806.82,587.82 C801.26,584.74 785.13,573.33 784.60,572.77" fill="none" stroke="rgb(255, 255, 255)" stroke-width="60.00" stroke-opacity="1.00" stroke-linejoin="round"/>
<path d="M503.24,284.22 L581.79,205.68" fill="none" stroke="rgb(255, 255, 255)" stroke-width="60.00" stroke-opacity="1.00" stroke-linejoin="round"/>
<path d="M499.30,288.83 L421.42,210.94" fill="none" stroke="rgb(255, 255, 255)" stroke-width="60.00" stroke-opacity="1.00" stroke-linejoin="round"/>
<path d="M423.19,210.80 C420.24,207.16 418.00,203.91 416.42,200.46 C412.55,192.03 407.44,178.50 406.10,171.35 C404.81,164.20 404.76,148.37 405.79,141.71 C406.97,134.25 411.55,119.19 414.56,113.23 C418.03,106.45 427.00,93.59 431.71,88.85 C437.10,83.48 449.61,74.02 455.55,70.97 C462.34,67.52 477.15,62.39 483.75,61.33 C491.27,60.15 506.95,59.85 513.55,60.88 C521.07,62.08 536.07,66.63 542.03,69.65 C548.81,73.12 561.66,82.09 566.40,86.80 C571.78,92.19 581.23,104.69 584.28,110.64 C587.73,117.43 592.86,132.24 593.93,138.84 C595.11,146.36 595.40,161.63 594.44,168.58 C593.30,176.66 589.20,190.32 585.35,197.35 C582.27,202.91 570.86,219.04 570.31,219.58" fill="none" stroke="rgb(255, 255, 255)" stroke-width="60.00" stroke-opacity="1.00" stroke-linejoin="round"/>
</g>
</svg>
