<?xml version="1.0" encoding="UTF-8" standalone="no"?>
<!-- Uploaded to: SVG Repo, www.svgrepo.com, Generator: SVG Repo Mixer Tools -->

<svg
   width="800px"
   height="800px"
   viewBox="-4 0 20 20"
   version="1.1"
   id="svg12"
   sodipodi:docname="tumblr.svg"
   inkscape:version="1.2 (dc2aedaf03, 2022-05-15)"
   xmlns:inkscape="http://www.inkscape.org/namespaces/inkscape"
   xmlns:sodipodi="http://sodipodi.sourceforge.net/DTD/sodipodi-0.dtd"
   xmlns="http://www.w3.org/2000/svg"
   xmlns:svg="http://www.w3.org/2000/svg">
  <sodipodi:namedview
     id="namedview14"
     pagecolor="#ffffff"
     bordercolor="#000000"
     borderopacity="0.25"
     inkscape:showpageshadow="2"
     inkscape:pageopacity="0.0"
     inkscape:pagecheckerboard="0"
     inkscape:deskcolor="#d1d1d1"
     showgrid="false"
     inkscape:zoom="1.04625"
     inkscape:cx="399.5221"
     inkscape:cy="400.4779"
     inkscape:window-width="1920"
     inkscape:window-height="1017"
     inkscape:window-x="-8"
     inkscape:window-y="-8"
     inkscape:window-maximized="1"
     inkscape:current-layer="Page-1" />
  <title
     id="title2">tumblr [#181]</title>
  <desc
     id="desc4">Created with Sketch.</desc>
  <defs
     id="defs6" />
  <g
     id="Page-1"
     stroke="none"
     stroke-width="1"
     fill="none"
     fill-rule="evenodd">
    <g
       id="Dribbble-Light-Preview"
       transform="translate(-184.000000, -7399.000000)"
       fill="#000000"
       style="fill:#ffffff">
      <g
         id="icons"
         transform="translate(56.000000, 160.000000)"
         style="fill:#ffffff">
        <path
           d="M139.00148,7254.975 L140,7257.827 C139.622944,7258.358 137.91209,7258.973 136.376708,7258.998 C131.82592,7259.073 130.088955,7255.895 130.088955,7253.657 L130.088955,7247 L128,7247 L128,7244.539 C131.169989,7243.445 131.931413,7240.708 132.110018,7239.149 C132.122552,7239.042 132.210288,7239 132.261467,7239 L135.311341,7239 L135.311341,7244 L139.489251,7244 L139.489251,7247 L135.311341,7247 L135.311341,7253.349 C135.311341,7254.195 135.646619,7255.363 137.318827,7255.32 C137.873444,7255.307 138.612934,7255.152 139.00148,7254.975"
           id="tumblr-[#181]"
           style="fill:#ffffff" />
      </g>
    </g>
  </g>
</svg>
